# MagicaVoxel @ Ephtracy

# group
o 

# material
mtllib _Tree.mtl
usemtl palette

# normals
vn -1 0 0
vn 1 0 0
vn 0 0 1
vn 0 0 -1
vn 0 -1 0
vn 0 1 0

# texcoords
vt 0.939453 0.5
vt 0.943359 0.5
vt 0.970703 0.5
vt 0.982422 0.5

# verts
v -2.4 0 2.1
v -2.4 0 0.9
v -2.4 0 0.8
v -2.4 0 -0.9
v -2.4 0 -1
v -2.4 0 -2
v -2.4 3.9 -0.8
v -2.4 3.9 -0.9
v -2.4 3.9 -1
v -2.4 11.5 -0.7
v -2.4 11.5 -0.8
v -2.4 11.5 -0.9
v -2.4 15.2 0.9
v -2.4 15.2 0.8
v -2.4 15.3 0.9
v -2.4 15.3 0.8
v -2.4 15.3 -0.7
v -2.4 15.3 -0.8
v -2.4 15.3 -0.9
v -2.4 17.5 -0.7
v -2.4 17.5 -0.8
v -2.4 17.5 -0.9
v -2.4 21.2 0.9
v -2.4 21.2 0.8
v -2.4 21.3 2.1
v -2.4 21.3 -0.7
v -2.4 21.3 -0.8
v -2.4 21.3 -2
v -2.2 0 2.3
v -2.2 0 2.1
v -2.2 0 -2
v -2.2 0 -2.2
v -2.2 21.3 2.3
v -2.2 21.3 2.1
v -2.2 21.3 -2
v -2.2 21.3 -2.2
v 2.2 0 2.3
v 2.2 0 2.1
v 2.2 0 -2
v 2.2 0 -2.2
v 2.2 21.3 2.3
v 2.2 21.3 2.1
v 2.2 21.3 -2
v 2.2 21.3 -2.2
v 2.4 0 2.1
v 2.4 0 0.9
v 2.4 0 0.8
v 2.4 0 -0.9
v 2.4 0 -1
v 2.4 0 -2
v 2.4 3.9 -0.8
v 2.4 3.9 -0.9
v 2.4 3.9 -1
v 2.4 11.5 -0.7
v 2.4 11.5 -0.8
v 2.4 11.5 -0.9
v 2.4 15.2 0.9
v 2.4 15.2 0.8
v 2.4 15.3 0.9
v 2.4 15.3 0.8
v 2.4 15.3 -0.7
v 2.4 15.3 -0.8
v 2.4 15.3 -0.9
v 2.4 17.5 -0.7
v 2.4 17.5 -0.8
v 2.4 17.5 -0.9
v 2.4 21.2 0.9
v 2.4 21.2 0.8
v 2.4 21.3 2.1
v 2.4 21.3 -0.7
v 2.4 21.3 -0.8
v 2.4 21.3 -2
v -2.2 0 2.3
v -2.2 21.3 2.3
v -1.6 0 2.3
v -1.6 21.3 2.3
v -1.5 0 2.3
v -1.5 21.3 2.3
v -0.7 7.6 2.3
v -0.7 21.3 2.3
v -0.6 0 2.3
v -0.6 7.6 2.3
v -0.6 21.3 2.3
v -0.5 0 2.3
v -0.5 7.6 2.3
v 0.5 0 2.3
v 0.5 7.6 2.3
v 0.6 0 2.3
v 0.6 7.6 2.3
v 0.6 21.3 2.3
v 0.7 7.6 2.3
v 0.7 21.3 2.3
v 1.5 0 2.3
v 1.5 21.3 2.3
v 1.6 0 2.3
v 1.6 21.3 2.3
v 2.2 0 2.3
v 2.2 21.3 2.3
v -2.4 0 2.1
v -2.4 21.3 2.1
v -2.2 0 2.1
v -2.2 21.3 2.1
v 2.2 0 2.1
v 2.2 21.3 2.1
v 2.4 0 2.1
v 2.4 21.3 2.1
v -2.4 0 -2
v -2.4 21.3 -2
v -2.2 0 -2
v -2.2 21.3 -2
v 2.2 0 -2
v 2.2 21.3 -2
v 2.4 0 -2
v 2.4 21.3 -2
v -2.2 0 -2.2
v -2.2 21.3 -2.2
v -1.7 7.7 -2.2
v -1.7 21.3 -2.2
v -1.6 0 -2.2
v -1.6 7.7 -2.2
v -1.6 21.3 -2.2
v -1.5 0 -2.2
v -1.5 7.7 -2.2
v -0.8 11.4 -2.2
v -0.8 15.2 -2.2
v -0.8 17.4 -2.2
v -0.8 21.2 -2.2
v -0.7 3.8 -2.2
v -0.7 11.4 -2.2
v -0.7 15.2 -2.2
v -0.7 15.3 -2.2
v -0.7 17.4 -2.2
v -0.7 21.2 -2.2
v -0.6 0 -2.2
v -0.6 3.8 -2.2
v -0.6 11.4 -2.2
v -0.6 15.3 -2.2
v -0.6 17.4 -2.2
v -0.5 0 -2.2
v -0.5 3.8 -2.2
v 0.5 0 -2.2
v 0.5 3.8 -2.2
v 0.6 0 -2.2
v 0.6 3.8 -2.2
v 0.6 11.4 -2.2
v 0.6 15.3 -2.2
v 0.6 17.4 -2.2
v 0.7 3.8 -2.2
v 0.7 11.4 -2.2
v 0.7 15.2 -2.2
v 0.7 15.3 -2.2
v 0.7 17.4 -2.2
v 0.7 21.2 -2.2
v 0.8 11.4 -2.2
v 0.8 15.2 -2.2
v 0.8 17.4 -2.2
v 0.8 21.2 -2.2
v 1.5 0 -2.2
v 1.5 7.7 -2.2
v 1.6 0 -2.2
v 1.6 7.7 -2.2
v 1.6 21.3 -2.2
v 1.7 7.7 -2.2
v 1.7 21.3 -2.2
v 2.2 0 -2.2
v 2.2 21.3 -2.2
v -2.2 0 2.3
v -1.6 0 2.3
v -1.5 0 2.3
v -0.6 0 2.3
v -0.5 0 2.3
v 0.5 0 2.3
v 0.6 0 2.3
v 1.5 0 2.3
v 1.6 0 2.3
v 2.2 0 2.3
v -1.6 0 2.2
v -1.5 0 2.2
v -0.6 0 2.2
v -0.5 0 2.2
v 0.5 0 2.2
v 0.6 0 2.2
v 1.5 0 2.2
v 1.6 0 2.2
v -2.4 0 2.1
v -2.2 0 2.1
v 2.2 0 2.1
v 2.4 0 2.1
v -2.4 0 0.9
v -2.3 0 0.9
v 2.3 0 0.9
v 2.4 0 0.9
v -2.4 0 0.8
v -2.3 0 0.8
v 2.3 0 0.8
v 2.4 0 0.8
v -2.4 0 -0.9
v -2.3 0 -0.9
v 2.3 0 -0.9
v 2.4 0 -0.9
v -2.4 0 -1
v -2.3 0 -1
v 2.3 0 -1
v 2.4 0 -1
v -2.4 0 -2
v -2.2 0 -2
v 2.2 0 -2
v 2.4 0 -2
v -1.6 0 -2.1
v -1.5 0 -2.1
v -0.6 0 -2.1
v -0.5 0 -2.1
v 0.5 0 -2.1
v 0.6 0 -2.1
v 1.5 0 -2.1
v 1.6 0 -2.1
v -2.2 0 -2.2
v -1.6 0 -2.2
v -1.5 0 -2.2
v -0.6 0 -2.2
v -0.5 0 -2.2
v 0.5 0 -2.2
v 0.6 0 -2.2
v 1.5 0 -2.2
v 1.6 0 -2.2
v 2.2 0 -2.2
v -2.2 21.3 2.3
v -1.6 21.3 2.3
v -1.5 21.3 2.3
v -0.7 21.3 2.3
v -0.6 21.3 2.3
v 0.6 21.3 2.3
v 0.7 21.3 2.3
v 1.5 21.3 2.3
v 1.6 21.3 2.3
v 2.2 21.3 2.3
v -1.6 21.3 2.2
v -1.5 21.3 2.2
v 1.5 21.3 2.2
v 1.6 21.3 2.2
v -2.4 21.3 2.1
v -2.2 21.3 2.1
v -0.8 21.3 2.1
v -0.7 21.3 2.1
v -0.6 21.3 2.1
v 0.6 21.3 2.1
v 0.7 21.3 2.1
v 0.8 21.3 2.1
v 2.2 21.3 2.1
v 2.4 21.3 2.1
v -0.8 21.3 2
v -0.7 21.3 2
v 0.7 21.3 2
v 0.8 21.3 2
v -2.1 21.3 1.9
v 2.1 21.3 1.9
v -1.9 21.3 1.7
v 1.9 21.3 1.7
v -1.8 21.3 1.6
v 1.8 21.3 1.6
v -1.6 21.3 1.4
v 1.6 21.3 1.4
v -1.5 21.3 1.3
v 1.5 21.3 1.3
v -1.3 21.3 1.1
v 1.3 21.3 1.1
v -1.2 21.3 1
v 1.2 21.3 1
v -1 21.3 0.7
v 1 21.3 0.7
v -0.9 21.3 0.6
v 0.9 21.3 0.6
v -0.7 21.3 0.4
v 0.7 21.3 0.4
v -0.6 21.3 0.3
v 0.6 21.3 0.3
v -0.6 21.3 -0.5
v 0.6 21.3 -0.5
v -0.7 21.3 -0.6
v 0.7 21.3 -0.6
v -2.4 21.3 -0.7
v -2.3 21.3 -0.7
v 2.3 21.3 -0.7
v 2.4 21.3 -0.7
v -2.4 21.3 -0.8
v -2.3 21.3 -0.8
v -0.9 21.3 -0.8
v 0.9 21.3 -0.8
v 2.3 21.3 -0.8
v 2.4 21.3 -0.8
v -1 21.3 -0.9
v 1 21.3 -0.9
v -1.2 21.3 -1.1
v 1.2 21.3 -1.1
v -1.3 21.3 -1.2
v 1.3 21.3 -1.2
v -1.5 21.3 -1.4
v 1.5 21.3 -1.4
v -1.6 21.3 -1.5
v 1.6 21.3 -1.5
v -1.8 21.3 -1.7
v 1.8 21.3 -1.7
v -1.9 21.3 -1.8
v 1.9 21.3 -1.8
v -2.1 21.3 -1.9
v 2.1 21.3 -1.9
v -2.4 21.3 -2
v -2.2 21.3 -2
v 2.2 21.3 -2
v 2.4 21.3 -2
v -1.7 21.3 -2.1
v -1.6 21.3 -2.1
v 1.6 21.3 -2.1
v 1.7 21.3 -2.1
v -2.2 21.3 -2.2
v -1.7 21.3 -2.2
v -1.6 21.3 -2.2
v 1.6 21.3 -2.2
v 1.7 21.3 -2.2
v 2.2 21.3 -2.2

# faces
f 7/4/1 4/4/1 3/4/1
f 8/3/1 5/3/1 4/3/1
f 8/4/1 4/4/1 7/4/1
f 9/4/1 6/4/1 5/4/1
f 9/3/1 5/3/1 8/3/1
f 10/4/1 7/4/1 3/4/1
f 11/3/1 8/3/1 7/3/1
f 11/4/1 7/4/1 10/4/1
f 12/4/1 9/4/1 8/4/1
f 12/3/1 8/3/1 11/3/1
f 13/4/1 2/4/1 1/4/1
f 13/3/1 3/3/1 2/3/1
f 14/4/1 10/4/1 3/4/1
f 14/3/1 3/3/1 13/3/1
f 15/4/1 13/4/1 1/4/1
f 15/4/1 14/4/1 13/4/1
f 16/4/1 10/4/1 14/4/1
f 16/4/1 14/4/1 15/4/1
f 17/3/1 11/3/1 10/3/1
f 17/4/1 10/4/1 16/4/1
f 18/4/1 12/4/1 11/4/1
f 18/3/1 11/3/1 17/3/1
f 19/4/1 9/4/1 12/4/1
f 19/4/1 12/4/1 18/4/1
f 20/4/1 18/4/1 17/4/1
f 20/4/1 17/4/1 16/4/1
f 21/3/1 19/3/1 18/3/1
f 21/4/1 18/4/1 20/4/1
f 22/4/1 9/4/1 19/4/1
f 22/3/1 19/3/1 21/3/1
f 23/4/1 15/4/1 1/4/1
f 23/3/1 16/3/1 15/3/1
f 24/4/1 20/4/1 16/4/1
f 24/3/1 16/3/1 23/3/1
f 25/4/1 23/4/1 1/4/1
f 25/4/1 24/4/1 23/4/1
f 26/3/1 21/3/1 20/3/1
f 26/4/1 24/4/1 25/4/1
f 26/4/1 20/4/1 24/4/1
f 27/4/1 22/4/1 21/4/1
f 27/3/1 21/3/1 26/3/1
f 28/4/1 9/4/1 22/4/1
f 28/4/1 22/4/1 27/4/1
f 28/4/1 6/4/1 9/4/1
f 33/4/1 30/4/1 29/4/1
f 34/4/1 30/4/1 33/4/1
f 35/4/1 32/4/1 31/4/1
f 36/4/1 32/4/1 35/4/1
f 37/4/2 38/4/2 41/4/2
f 41/4/2 38/4/2 42/4/2
f 39/4/2 40/4/2 43/4/2
f 43/4/2 40/4/2 44/4/2
f 47/4/2 48/4/2 51/4/2
f 48/3/2 49/3/2 52/3/2
f 51/4/2 48/4/2 52/4/2
f 49/4/2 50/4/2 53/4/2
f 52/3/2 49/3/2 53/3/2
f 47/4/2 51/4/2 54/4/2
f 51/3/2 52/3/2 55/3/2
f 54/4/2 51/4/2 55/4/2
f 52/4/2 53/4/2 56/4/2
f 55/3/2 52/3/2 56/3/2
f 45/4/2 46/4/2 57/4/2
f 46/3/2 47/3/2 57/3/2
f 47/4/2 54/4/2 58/4/2
f 57/3/2 47/3/2 58/3/2
f 45/4/2 57/4/2 59/4/2
f 57/4/2 58/4/2 59/4/2
f 58/4/2 54/4/2 60/4/2
f 59/4/2 58/4/2 60/4/2
f 54/3/2 55/3/2 61/3/2
f 60/4/2 54/4/2 61/4/2
f 55/4/2 56/4/2 62/4/2
f 61/3/2 55/3/2 62/3/2
f 56/4/2 53/4/2 63/4/2
f 62/4/2 56/4/2 63/4/2
f 61/4/2 62/4/2 64/4/2
f 60/4/2 61/4/2 64/4/2
f 62/3/2 63/3/2 65/3/2
f 64/4/2 62/4/2 65/4/2
f 63/4/2 53/4/2 66/4/2
f 65/3/2 63/3/2 66/3/2
f 45/4/2 59/4/2 67/4/2
f 59/3/2 60/3/2 67/3/2
f 60/4/2 64/4/2 68/4/2
f 67/3/2 60/3/2 68/3/2
f 45/4/2 67/4/2 69/4/2
f 67/4/2 68/4/2 69/4/2
f 64/3/2 65/3/2 70/3/2
f 69/4/2 68/4/2 70/4/2
f 68/4/2 64/4/2 70/4/2
f 65/4/2 66/4/2 71/4/2
f 70/3/2 65/3/2 71/3/2
f 66/4/2 53/4/2 72/4/2
f 71/4/2 66/4/2 72/4/2
f 53/4/2 50/4/2 72/4/2
f 75/4/3 74/4/3 73/4/3
f 76/4/3 74/4/3 75/4/3
f 77/3/3 76/3/3 75/3/3
f 78/3/3 76/3/3 77/3/3
f 79/4/3 78/4/3 77/4/3
f 80/4/3 78/4/3 79/4/3
f 81/4/3 79/4/3 77/4/3
f 82/3/3 80/3/3 79/3/3
f 82/4/3 79/4/3 81/4/3
f 83/3/3 80/3/3 82/3/3
f 84/3/3 82/3/3 81/3/3
f 85/4/3 83/4/3 82/4/3
f 85/3/3 82/3/3 84/3/3
f 86/4/3 85/4/3 84/4/3
f 87/4/3 83/4/3 85/4/3
f 87/4/3 85/4/3 86/4/3
f 88/3/3 87/3/3 86/3/3
f 89/4/3 83/4/3 87/4/3
f 89/3/3 87/3/3 88/3/3
f 90/4/3 83/4/3 89/4/3
f 91/4/3 89/4/3 88/4/3
f 91/3/3 90/3/3 89/3/3
f 92/3/3 90/3/3 91/3/3
f 93/4/3 91/4/3 88/4/3
f 93/4/3 92/4/3 91/4/3
f 94/4/3 92/4/3 93/4/3
f 95/3/3 94/3/3 93/3/3
f 96/3/3 94/3/3 95/3/3
f 97/4/3 96/4/3 95/4/3
f 98/4/3 96/4/3 97/4/3
f 101/4/3 100/4/3 99/4/3
f 102/4/3 100/4/3 101/4/3
f 105/4/3 104/4/3 103/4/3
f 106/4/3 104/4/3 105/4/3
f 107/4/4 108/4/4 109/4/4
f 109/4/4 108/4/4 110/4/4
f 111/4/4 112/4/4 113/4/4
f 113/4/4 112/4/4 114/4/4
f 115/4/4 116/4/4 117/4/4
f 117/4/4 116/4/4 118/4/4
f 115/4/4 117/4/4 119/4/4
f 117/3/4 118/3/4 120/3/4
f 119/4/4 117/4/4 120/4/4
f 120/3/4 118/3/4 121/3/4
f 119/3/4 120/3/4 122/3/4
f 120/4/4 121/4/4 123/4/4
f 122/3/4 120/3/4 123/3/4
f 122/4/4 123/4/4 124/4/4
f 123/4/4 121/4/4 124/4/4
f 124/4/4 121/4/4 125/4/4
f 125/4/4 121/4/4 126/4/4
f 126/4/4 121/4/4 127/4/4
f 122/4/4 124/4/4 128/4/4
f 124/3/4 125/3/4 129/3/4
f 128/4/4 124/4/4 129/4/4
f 125/4/4 126/4/4 130/4/4
f 129/3/4 125/3/4 130/3/4
f 130/4/4 126/4/4 131/4/4
f 126/3/4 127/3/4 132/3/4
f 131/4/4 126/4/4 132/4/4
f 127/4/4 121/4/4 133/4/4
f 132/3/4 127/3/4 133/3/4
f 122/4/4 128/4/4 134/4/4
f 128/3/4 129/3/4 135/3/4
f 134/4/4 128/4/4 135/4/4
f 130/4/4 131/4/4 136/4/4
f 135/3/4 129/3/4 136/3/4
f 129/4/4 130/4/4 136/4/4
f 131/3/4 132/3/4 137/3/4
f 136/4/4 131/4/4 137/4/4
f 132/4/4 133/4/4 138/4/4
f 137/3/4 132/3/4 138/3/4
f 134/3/4 135/3/4 139/3/4
f 135/4/4 136/4/4 140/4/4
f 139/3/4 135/3/4 140/3/4
f 136/4/4 137/4/4 140/4/4
f 137/4/4 138/4/4 140/4/4
f 139/4/4 140/4/4 141/4/4
f 140/4/4 138/4/4 142/4/4
f 141/4/4 140/4/4 142/4/4
f 141/3/4 142/3/4 143/3/4
f 142/4/4 138/4/4 144/4/4
f 143/3/4 142/3/4 144/3/4
f 144/4/4 138/4/4 145/4/4
f 145/4/4 138/4/4 146/4/4
f 138/4/4 133/4/4 147/4/4
f 146/4/4 138/4/4 147/4/4
f 143/4/4 144/4/4 148/4/4
f 144/3/4 145/3/4 148/3/4
f 145/4/4 146/4/4 149/4/4
f 148/3/4 145/3/4 149/3/4
f 149/4/4 146/4/4 150/4/4
f 146/3/4 147/3/4 151/3/4
f 150/4/4 146/4/4 151/4/4
f 147/4/4 133/4/4 152/4/4
f 151/3/4 147/3/4 152/3/4
f 133/4/4 121/4/4 153/4/4
f 152/4/4 133/4/4 153/4/4
f 149/3/4 150/3/4 154/3/4
f 148/4/4 149/4/4 154/4/4
f 151/4/4 152/4/4 155/4/4
f 154/3/4 150/3/4 155/3/4
f 150/4/4 151/4/4 155/4/4
f 152/3/4 153/3/4 156/3/4
f 155/4/4 152/4/4 156/4/4
f 153/4/4 121/4/4 157/4/4
f 156/3/4 153/3/4 157/3/4
f 148/4/4 154/4/4 158/4/4
f 143/4/4 148/4/4 158/4/4
f 156/4/4 157/4/4 158/4/4
f 155/4/4 156/4/4 158/4/4
f 154/4/4 155/4/4 158/4/4
f 158/4/4 157/4/4 159/4/4
f 158/3/4 159/3/4 160/3/4
f 159/4/4 157/4/4 161/4/4
f 160/3/4 159/3/4 161/3/4
f 157/4/4 121/4/4 162/4/4
f 161/4/4 157/4/4 162/4/4
f 160/4/4 161/4/4 163/4/4
f 161/3/4 162/3/4 163/3/4
f 163/3/4 162/3/4 164/3/4
f 160/4/4 163/4/4 165/4/4
f 163/4/4 164/4/4 165/4/4
f 165/4/4 164/4/4 166/4/4
f 177/4/5 168/4/5 167/4/5
f 177/3/5 169/3/5 168/3/5
f 178/4/5 170/4/5 169/4/5
f 178/3/5 169/3/5 177/3/5
f 179/3/5 171/3/5 170/3/5
f 179/4/5 170/4/5 178/4/5
f 180/4/5 172/4/5 171/4/5
f 180/3/5 171/3/5 179/3/5
f 181/3/5 173/3/5 172/3/5
f 181/4/5 172/4/5 180/4/5
f 182/4/5 174/4/5 173/4/5
f 182/3/5 173/3/5 181/3/5
f 183/3/5 175/3/5 174/3/5
f 183/4/5 174/4/5 182/4/5
f 184/4/5 176/4/5 175/4/5
f 184/3/5 175/3/5 183/3/5
f 186/4/5 183/4/5 182/4/5
f 186/4/5 182/4/5 181/4/5
f 186/4/5 184/4/5 183/4/5
f 186/4/5 181/4/5 180/4/5
f 186/4/5 180/4/5 179/4/5
f 186/4/5 179/4/5 178/4/5
f 186/4/5 178/4/5 177/4/5
f 186/4/5 177/4/5 167/4/5
f 187/4/5 176/4/5 184/4/5
f 187/4/5 184/4/5 186/4/5
f 189/4/5 186/4/5 185/4/5
f 189/4/5 188/4/5 187/4/5
f 189/4/5 187/4/5 186/4/5
f 190/4/5 188/4/5 189/4/5
f 191/4/5 188/4/5 190/4/5
f 192/4/5 188/4/5 191/4/5
f 193/3/5 190/3/5 189/3/5
f 194/4/5 191/4/5 190/4/5
f 194/3/5 190/3/5 193/3/5
f 195/3/5 192/3/5 191/3/5
f 195/4/5 191/4/5 194/4/5
f 196/3/5 192/3/5 195/3/5
f 197/4/5 194/4/5 193/4/5
f 197/4/5 195/4/5 194/4/5
f 197/4/5 196/4/5 195/4/5
f 198/4/5 196/4/5 197/4/5
f 199/4/5 196/4/5 198/4/5
f 200/4/5 196/4/5 199/4/5
f 201/3/5 198/3/5 197/3/5
f 202/4/5 199/4/5 198/4/5
f 202/3/5 198/3/5 201/3/5
f 203/3/5 200/3/5 199/3/5
f 203/4/5 199/4/5 202/4/5
f 204/3/5 200/3/5 203/3/5
f 205/4/5 202/4/5 201/4/5
f 205/4/5 203/4/5 202/4/5
f 205/4/5 204/4/5 203/4/5
f 206/4/5 204/4/5 205/4/5
f 207/4/5 204/4/5 206/4/5
f 208/4/5 204/4/5 207/4/5
f 209/4/5 207/4/5 206/4/5
f 210/4/5 207/4/5 209/4/5
f 211/4/5 207/4/5 210/4/5
f 212/4/5 207/4/5 211/4/5
f 213/4/5 207/4/5 212/4/5
f 214/4/5 207/4/5 213/4/5
f 215/4/5 207/4/5 214/4/5
f 216/4/5 207/4/5 215/4/5
f 217/4/5 209/4/5 206/4/5
f 218/3/5 210/3/5 209/3/5
f 218/4/5 209/4/5 217/4/5
f 219/4/5 211/4/5 210/4/5
f 219/3/5 210/3/5 218/3/5
f 220/3/5 212/3/5 211/3/5
f 220/4/5 211/4/5 219/4/5
f 221/4/5 213/4/5 212/4/5
f 221/3/5 212/3/5 220/3/5
f 222/3/5 214/3/5 213/3/5
f 222/4/5 213/4/5 221/4/5
f 223/4/5 215/4/5 214/4/5
f 223/3/5 214/3/5 222/3/5
f 224/3/5 216/3/5 215/3/5
f 224/4/5 215/4/5 223/4/5
f 225/4/5 207/4/5 216/4/5
f 225/3/5 216/3/5 224/3/5
f 226/4/5 207/4/5 225/4/5
f 227/4/6 228/4/6 237/4/6
f 228/3/6 229/3/6 237/3/6
f 229/4/6 230/4/6 238/4/6
f 237/3/6 229/3/6 238/3/6
f 234/3/6 235/3/6 239/3/6
f 233/4/6 234/4/6 239/4/6
f 235/4/6 236/4/6 240/4/6
f 239/3/6 235/3/6 240/3/6
f 227/4/6 237/4/6 242/4/6
f 237/4/6 238/4/6 242/4/6
f 238/4/6 230/4/6 243/4/6
f 242/4/6 238/4/6 243/4/6
f 230/3/6 231/3/6 244/3/6
f 243/4/6 230/4/6 244/4/6
f 231/4/6 232/4/6 245/4/6
f 244/3/6 231/3/6 245/3/6
f 232/3/6 233/3/6 246/3/6
f 245/4/6 232/4/6 246/4/6
f 233/4/6 239/4/6 247/4/6
f 246/3/6 233/3/6 247/3/6
f 239/4/6 240/4/6 247/4/6
f 247/4/6 240/4/6 248/4/6
f 240/4/6 236/4/6 249/4/6
f 248/4/6 240/4/6 249/4/6
f 241/4/6 242/4/6 251/4/6
f 242/4/6 243/4/6 251/4/6
f 243/3/6 244/3/6 251/3/6
f 245/4/6 246/4/6 252/4/6
f 251/3/6 244/3/6 252/3/6
f 246/4/6 247/4/6 252/4/6
f 244/4/6 245/4/6 252/4/6
f 247/3/6 248/3/6 253/3/6
f 252/4/6 247/4/6 253/4/6
f 249/4/6 250/4/6 254/4/6
f 253/3/6 248/3/6 254/3/6
f 248/4/6 249/4/6 254/4/6
f 241/4/6 251/4/6 255/4/6
f 252/4/6 253/4/6 255/4/6
f 253/4/6 254/4/6 255/4/6
f 251/4/6 252/4/6 255/4/6
f 254/4/6 250/4/6 256/4/6
f 255/4/6 254/4/6 256/4/6
f 255/1/6 256/1/6 257/1/6
f 257/1/6 256/1/6 258/1/6
f 257/2/6 258/2/6 259/2/6
f 259/2/6 258/2/6 260/2/6
f 259/1/6 260/1/6 261/1/6
f 261/1/6 260/1/6 262/1/6
f 261/2/6 262/2/6 263/2/6
f 263/2/6 262/2/6 264/2/6
f 263/1/6 264/1/6 265/1/6
f 265/1/6 264/1/6 266/1/6
f 265/2/6 266/2/6 267/2/6
f 267/2/6 266/2/6 268/2/6
f 267/1/6 268/1/6 269/1/6
f 269/1/6 268/1/6 270/1/6
f 269/2/6 270/2/6 271/2/6
f 271/2/6 270/2/6 272/2/6
f 271/1/6 272/1/6 273/1/6
f 273/1/6 272/1/6 274/1/6
f 273/2/6 274/2/6 275/2/6
f 275/2/6 274/2/6 276/2/6
f 273/2/6 275/2/6 277/2/6
f 275/1/6 276/1/6 277/1/6
f 276/2/6 274/2/6 278/2/6
f 277/1/6 276/1/6 278/1/6
f 271/1/6 273/1/6 279/1/6
f 273/2/6 277/2/6 279/2/6
f 277/2/6 278/2/6 279/2/6
f 278/2/6 274/2/6 280/2/6
f 279/2/6 278/2/6 280/2/6
f 274/1/6 272/1/6 280/1/6
f 241/4/6 255/4/6 281/4/6
f 281/4/6 255/4/6 282/4/6
f 256/4/6 250/4/6 283/4/6
f 283/4/6 250/4/6 284/4/6
f 281/3/6 282/3/6 285/3/6
f 282/4/6 255/4/6 286/4/6
f 285/3/6 282/3/6 286/3/6
f 269/2/6 271/2/6 287/2/6
f 271/1/6 279/1/6 287/1/6
f 279/1/6 280/1/6 287/1/6
f 280/1/6 272/1/6 288/1/6
f 287/1/6 280/1/6 288/1/6
f 272/2/6 270/2/6 288/2/6
f 256/4/6 283/4/6 289/4/6
f 283/3/6 284/3/6 289/3/6
f 289/3/6 284/3/6 290/3/6
f 269/2/6 287/2/6 291/2/6
f 267/1/6 269/1/6 291/1/6
f 287/2/6 288/2/6 291/2/6
f 270/1/6 268/1/6 292/1/6
f 291/2/6 288/2/6 292/2/6
f 288/2/6 270/2/6 292/2/6
f 265/2/6 267/2/6 293/2/6
f 267/1/6 291/1/6 293/1/6
f 291/1/6 292/1/6 293/1/6
f 292/1/6 268/1/6 294/1/6
f 293/1/6 292/1/6 294/1/6
f 268/2/6 266/2/6 294/2/6
f 263/1/6 265/1/6 295/1/6
f 265/2/6 293/2/6 295/2/6
f 293/2/6 294/2/6 295/2/6
f 294/2/6 266/2/6 296/2/6
f 295/2/6 294/2/6 296/2/6
f 266/1/6 264/1/6 296/1/6
f 261/2/6 263/2/6 297/2/6
f 263/1/6 295/1/6 297/1/6
f 295/1/6 296/1/6 297/1/6
f 296/1/6 264/1/6 298/1/6
f 297/1/6 296/1/6 298/1/6
f 264/2/6 262/2/6 298/2/6
f 259/1/6 261/1/6 299/1/6
f 261/2/6 297/2/6 299/2/6
f 297/2/6 298/2/6 299/2/6
f 298/2/6 262/2/6 300/2/6
f 299/2/6 298/2/6 300/2/6
f 262/1/6 260/1/6 300/1/6
f 257/2/6 259/2/6 301/2/6
f 259/1/6 299/1/6 301/1/6
f 299/1/6 300/1/6 301/1/6
f 300/1/6 260/1/6 302/1/6
f 301/1/6 300/1/6 302/1/6
f 260/2/6 258/2/6 302/2/6
f 255/1/6 257/1/6 303/1/6
f 257/2/6 301/2/6 303/2/6
f 301/2/6 302/2/6 303/2/6
f 302/2/6 258/2/6 304/2/6
f 303/2/6 302/2/6 304/2/6
f 258/1/6 256/1/6 304/1/6
f 255/1/6 303/1/6 305/1/6
f 286/4/6 255/4/6 305/4/6
f 303/1/6 304/1/6 305/1/6
f 285/4/6 286/4/6 305/4/6
f 304/1/6 256/1/6 306/1/6
f 305/1/6 304/1/6 306/1/6
f 289/4/6 290/4/6 306/4/6
f 256/4/6 289/4/6 306/4/6
f 285/4/6 305/4/6 307/4/6
f 305/4/6 306/4/6 307/4/6
f 307/4/6 306/4/6 308/4/6
f 306/4/6 290/4/6 309/4/6
f 308/4/6 306/4/6 309/4/6
f 309/4/6 290/4/6 310/4/6
f 308/4/6 309/4/6 311/4/6
f 311/4/6 309/4/6 312/4/6
f 312/4/6 309/4/6 313/4/6
f 313/4/6 309/4/6 314/4/6
f 308/4/6 311/4/6 315/4/6
f 311/3/6 312/3/6 316/3/6
f 315/4/6 311/4/6 316/4/6
f 312/4/6 313/4/6 317/4/6
f 316/3/6 312/3/6 317/3/6
f 313/3/6 314/3/6 318/3/6
f 317/4/6 313/4/6 318/4/6
f 314/4/6 309/4/6 319/4/6
f 318/3/6 314/3/6 319/3/6
f 319/4/6 309/4/6 320/4/6
